<svg width="209" height="209" viewBox="0 0 209 209" fill="none" xmlns="http://www.w3.org/2000/svg">
<rect width="209" height="209" fill="white"/>
<path d="M86.862 99.112V110.812H92.784V112H85.566V99.112H86.862ZM93.6664 107.644C93.6664 104.98 95.5384 103.054 98.0944 103.054C100.65 103.054 102.522 104.98 102.522 107.644C102.522 110.29 100.65 112.216 98.0944 112.216C95.5384 112.216 93.6664 110.29 93.6664 107.644ZM94.9264 107.626C94.9264 109.678 96.2224 111.1 98.0944 111.1C99.9484 111.1 101.262 109.678 101.262 107.626C101.262 105.61 99.9484 104.17 98.0944 104.17C96.2224 104.17 94.9264 105.61 94.9264 107.626ZM103.915 107.392C103.915 105.016 105.445 103.054 108.001 103.054C109.513 103.054 110.665 103.756 111.223 105.034L111.349 103.288H112.429V111.73C112.429 114.322 110.773 116.014 108.217 116.014C105.985 116.014 104.419 114.754 104.077 112.648H105.319C105.589 114.052 106.669 114.88 108.235 114.88C110.017 114.88 111.205 113.674 111.205 111.856V109.786C110.611 111.01 109.405 111.73 107.911 111.73C105.427 111.73 103.915 109.768 103.915 107.392ZM105.157 107.374C105.157 109.156 106.255 110.614 108.091 110.614C109.981 110.614 111.097 109.246 111.097 107.374C111.097 105.52 110.017 104.152 108.109 104.152C106.237 104.152 105.157 105.61 105.157 107.374ZM114.409 107.644C114.409 104.98 116.281 103.054 118.837 103.054C121.393 103.054 123.265 104.98 123.265 107.644C123.265 110.29 121.393 112.216 118.837 112.216C116.281 112.216 114.409 110.29 114.409 107.644ZM115.669 107.626C115.669 109.678 116.965 111.1 118.837 111.1C120.691 111.1 122.005 109.678 122.005 107.626C122.005 105.61 120.691 104.17 118.837 104.17C116.965 104.17 115.669 105.61 115.669 107.626Z" fill="black"/>
</svg>
